<svg width="45" height="35" fill="none" xmlns="http://www.w3.org/2000/svg"><path fill-rule="evenodd" clip-rule="evenodd" d="M44.682 0H4.2C1.4 0 0 1.4 0 4.2v26.6C0 33.6 1.4 35 4.2 35h26.482s0-.7 7-9.1c3.502-4.203 5.252-10.683 6.126-16.11a71.423 71.423 0 00.839-8.39l.004-.115c.03-.818.03-1.285.03-1.285zm-1.518 2.955c-.445.45-.976.953-1.608 1.508-2.94 2.584-8.064 6.289-16.851 10.858-8.625 4.485-12.164 9.44-13.58 13.189-.712 1.882-.897 3.484-.907 4.604-.002.174 0 .336.006.486h5.914c.023-.125.048-.257.078-.396.23-1.093.687-2.619 1.593-4.386 1.816-3.542 5.418-8.017 12.535-11.931C37.227 13.1 40.625 8.826 42.31 5.543c.326-.635.588-1.234.799-1.787.021-.28.04-.547.056-.8zm-.463 4.735c-2.018 3.253-5.542 7.047-11.682 10.423-6.883 3.786-10.28 8.061-11.964 11.344-.844 1.645-1.262 3.051-1.47 4.036l-.022.107h6.089a46.778 46.778 0 012.614-4c2.127-2.924 5.324-6.656 9.596-9.86 3.433-2.575 5.427-6.529 6.58-10.268.097-.61.183-1.205.259-1.782zm-1.76 8.503c-1.109 1.745-2.498 3.361-4.24 4.667-4.127 3.096-7.23 6.714-9.303 9.564a46.065 46.065 0 00-2.119 3.176h4.58c.14-.217.323-.483.558-.814.906-1.267 2.682-3.573 6.19-7.782 1.95-2.34 3.344-5.497 4.334-8.81zM8.823 33.6a12.058 12.058 0 01-.005-.499c.011-1.263.22-3.03.996-5.086 1.56-4.126 5.37-9.321 14.245-13.936 8.713-4.53 13.738-8.176 16.573-10.667A27.695 27.695 0 0042.715 1.4H4.2c-1.184 0-1.815.295-2.16.64-.345.345-.64.976-.64 2.16v26.6c0 1.184.295 1.815.64 2.16.345.345 2.16.64 2.16.64h4.623z" fill="#161616"/><path fill-rule="evenodd" clip-rule="evenodd" d="M8.823 33.7a12.058 12.058 0 01-.005-.499c.011-1.263.22-3.03.997-5.086 1.558-4.126 5.369-9.321 14.244-13.936 8.713-4.531 13.738-8.176 16.573-10.667.9-.79 1.577-1.591 2.083-2.14H4.2c-1.184 0-1.815.296-2.16.64-.345.346-.64.977-.64 2.16V30.9c0 1.184.295 1.815.64 2.16.345.345.976.64 2.16.64h4.623z" fill="#1A8CCB"/><path fill-rule="evenodd" clip-rule="evenodd" d="M43.164 2.955c-.445.45-.976.953-1.607 1.508-2.94 2.584-8.065 6.289-16.852 10.858-8.625 4.485-12.164 9.44-13.58 13.189-.712 1.882-.897 3.483-.907 4.604-.002.174.001.336.007.486h5.914c.022-.125.047-.257.077-.396.23-1.093.687-2.619 1.593-4.386 1.817-3.542 5.419-8.017 12.536-11.931 6.883-3.786 10.28-8.061 11.964-11.344.326-.635.588-1.234.8-1.787.02-.28.039-.547.055-.8z" fill="#7FB627"/><path fill-rule="evenodd" clip-rule="evenodd" d="M42.7 7.69c-2.018 3.253-5.541 7.046-11.681 10.423-6.883 3.786-10.28 8.061-11.964 11.344-.844 1.645-1.262 3.051-1.47 4.036l-.022.107h6.089a46.776 46.776 0 012.614-4c2.127-2.924 5.324-6.656 9.596-9.86 3.433-2.575 5.427-6.529 6.58-10.268.097-.61.183-1.205.259-1.782z" fill="#FAC81B"/><path fill-rule="evenodd" clip-rule="evenodd" d="M40.941 16.193c-1.109 1.745-2.498 3.36-4.24 4.667-4.127 3.096-7.23 6.714-9.303 9.564a46.078 46.078 0 00-2.119 3.176h4.58c.14-.217.323-.484.559-.814.905-1.267 2.68-3.574 6.188-7.783 1.95-2.34 3.345-5.496 4.335-8.81z" fill="#EE7C09"/></svg>